<svg id="Component_53_3" data-name="Component 53 – 3" xmlns="http://www.w3.org/2000/svg" width="48" height="46.314" viewBox="0 0 48 46.314">
  <rect id="Rectangle_724" data-name="Rectangle 724" width="24.641" height="23.91" rx="3" transform="translate(14.672 22.405)" fill="#1ac977" opacity="0.2" style="isolation: isolate"/>
  <path id="Path_30984" data-name="Path 30984" d="M1326.277,506.733h-21.248a5.328,5.328,0,0,1-5.282-5.362V479.812a5.33,5.33,0,0,1,5.281-5.359h2.573a.694.694,0,0,1,0,1.388h-2.572a3.95,3.95,0,0,0-3.913,3.971v21.559a3.947,3.947,0,0,0,3.911,3.973h21.25a3.949,3.949,0,0,0,3.913-3.971V479.815a3.951,3.951,0,0,0-3.914-3.971H1323.6a.694.694,0,0,1,0-1.388h2.677a5.332,5.332,0,0,1,5.282,5.359v21.56A5.33,5.33,0,0,1,1326.277,506.733Z" transform="translate(-1289.555 -462.964)" fill="#444b54"/>
  <path id="Path_30985" data-name="Path 30985" d="M1341.092,503.464h-26.461a.694.694,0,0,1,0-1.388h26.461a.694.694,0,0,1,0,1.388Z" transform="translate(-1299.87 -482.913)" fill="#444b54"/>
  <path id="Path_30986" data-name="Path 30986" d="M1328.254,470.979a2.229,2.229,0,0,1-2.21-2.243.684.684,0,1,1,1.368,0,.842.842,0,1,0,1.684,0v-3.785a.842.842,0,1,0-1.684,0v1.638a.684.684,0,1,1-1.368,0v-1.638a2.211,2.211,0,1,1,4.421,0v3.785A2.229,2.229,0,0,1,1328.254,470.979Z" transform="translate(-1308.655 -454.477)" fill="#444b54"/>
  <path id="Path_30987" data-name="Path 30987" d="M1355.619,470.979a2.229,2.229,0,0,1-2.21-2.243.684.684,0,1,1,1.368,0,.842.842,0,1,0,1.684,0v-3.785a.842.842,0,1,0-1.683,0v1.638a.689.689,0,0,1-.684.694h-7.29a.694.694,0,0,1,0-1.388h6.606v-.944a2.229,2.229,0,0,1,2.21-2.243,2.181,2.181,0,0,1,1.564.658,2.241,2.241,0,0,1,.645,1.586v3.784A2.229,2.229,0,0,1,1355.619,470.979Z" transform="translate(-1323.238 -454.477)" fill="#444b54"/>
  <path id="Path_30988" data-name="Path 30988" d="M1266.852,519.757a.676.676,0,0,1-.415-.143l-3.669-2.845a.7.7,0,0,1-.128-.973.678.678,0,0,1,.959-.13l3.125,2.424,2.39-3.171a.678.678,0,0,1,.959-.13.7.7,0,0,1,.128.973l-2.806,3.723A.68.68,0,0,1,1266.852,519.757Z" transform="translate(-1262.5 -491.993)" fill="#444b54"/>
  <path id="Path_30989" data-name="Path 30989" d="M1305.13,439.044a.679.679,0,0,1-.554-.286.7.7,0,0,1,.152-.97l1.017-.75a22.311,22.311,0,0,1,20.672-2.487.7.7,0,0,1,.4.895.681.681,0,0,1-.882.4,20.951,20.951,0,0,0-19.4,2.325l-1,.737A.674.674,0,0,1,1305.13,439.044Z" transform="translate(-1292.968 -433.074)" fill="#444b54"/>
  <path id="Path_30990" data-name="Path 30990" d="M1295.954,456.807a.714.714,0,0,1-.134-.014.688.688,0,0,1-.129-.039.786.786,0,0,1-.118-.064.636.636,0,0,1-.1-.086.786.786,0,0,1-.085-.105.766.766,0,0,1-.063-.122.712.712,0,0,1-.041-.128.763.763,0,0,1-.011-.136.7.7,0,0,1,.2-.492.635.635,0,0,1,.1-.086.6.6,0,0,1,.118-.064.683.683,0,0,1,.129-.039.612.612,0,0,1,.265,0,.694.694,0,0,1,.129.039.6.6,0,0,1,.117.064.642.642,0,0,1,.1.086.7.7,0,0,1,.2.492.752.752,0,0,1-.011.136.659.659,0,0,1-.041.128.693.693,0,0,1-.063.122.781.781,0,0,1-.085.105.643.643,0,0,1-.1.086.788.788,0,0,1-.117.064.7.7,0,0,1-.129.039A.708.708,0,0,1,1295.954,456.807Z" transform="translate(-1286.303 -449.212)" fill="#444b54"/>
  <path id="Path_30991" data-name="Path 30991" d="M1274.77,478.741h-.011a.69.69,0,0,1-.673-.706,22.309,22.309,0,0,1,3.845-12.192.678.678,0,0,1,.951-.178.7.7,0,0,1,.176.965,20.912,20.912,0,0,0-3.6,11.428A.689.689,0,0,1,1274.77,478.741Z" transform="translate(-1270.917 -456.526)" fill="#444b54"/>
  <path id="Path_30992" data-name="Path 30992" d="M1285.942,556.02a.674.674,0,0,1-.4-.13,14.734,14.734,0,0,1-1.6-1.348l-.035-.036a22.049,22.049,0,0,1-4.266-7.154.7.7,0,0,1,.4-.892.682.682,0,0,1,.879.411,20.667,20.667,0,0,0,3.98,6.686,13.4,13.4,0,0,0,1.434,1.2.7.7,0,0,1,.158.969A.681.681,0,0,1,1285.942,556.02Z" transform="translate(-1274.922 -514.945)" fill="#444b54"/>
  <path id="Path_30993" data-name="Path 30993" d="M1395.382,450.726a.687.687,0,0,1-.672-.567l-.831-4.506a.694.694,0,0,1,.547-.81l4.441-.843a.685.685,0,0,1,.8.555.693.693,0,0,1-.547.81l-3.769.715.705,3.824a.694.694,0,0,1-.547.81A.672.672,0,0,1,1395.382,450.726Z" transform="translate(-1357.919 -440.956)" fill="#444b54"/>
  <path id="Path_30994" data-name="Path 30994" d="M1411.052,490.127a.676.676,0,0,1-.468-.188.7.7,0,0,1-.031-.981,20.921,20.921,0,0,0,2.6-3.478,21.774,21.774,0,0,0-3.3-25.979.7.7,0,0,1,0-.982.677.677,0,0,1,.968,0,23.181,23.181,0,0,1,3.5,27.667,22.334,22.334,0,0,1-2.777,3.719A.679.679,0,0,1,1411.052,490.127Z" transform="translate(-1369.385 -451.306)" fill="#444b54"/>
  <path id="Path_34294" data-name="Path 34294" d="M166.008,248.924h1.36v9.141h1.993V246.9h-3.353Z" transform="translate(-145.05 -219.63)" fill="#1ac977"/>
  <path id="Path_34295" data-name="Path 34295" d="M254.024,250.653h-.995v-1.729h3.651V246.9h-5.643v5.773h2.988a1.684,1.684,0,0,1,0,3.368h-2.988v2.022h2.988a3.706,3.706,0,0,0,0-7.412Z" transform="translate(-224.431 -219.63)" fill="#1ac977"/>
</svg>
