<?xml version="1.0" encoding="UTF-8"?>
<svg width="97px" height="91px" viewBox="0 0 97 91" version="1.1" xmlns="http://www.w3.org/2000/svg" xmlns:xlink="http://www.w3.org/1999/xlink">
    <!-- Generator: sketchtool 64 (101010) - https://sketch.com -->
    <title>F36239C3-E149-4562-B36C-95B701C2B439</title>
    <desc>Created with sketchtool.</desc>
    <g id="Page-1" stroke="none" stroke-width="1" fill="none" fill-rule="evenodd">
        <g id="-Empty-basket(Not-login)" transform="translate(-671.000000, -203.000000)" fill-rule="nonzero">
            <g id="Group-3" transform="translate(602.000000, 200.000000)">
                <g id="Empty-Basket" transform="translate(69.000000, 0.000000)">
                    <g id="325366" transform="translate(0.000000, 3.047619)">
                        <path d="M13.1142476,35.073822 C12.2753775,35.073822 11.4365074,34.7535637 10.7963666,34.113235 C9.51570915,32.8337046 9.51570915,30.7568156 10.7963666,29.4770974 L39.2106948,1.06295693 C40.4913523,-0.217700492 42.5661751,-0.217700492 43.8468325,1.06295693 C45.1274899,2.34248734 45.1274899,4.41937633 43.8468325,5.69909458 L15.4325042,34.113235 C14.7919877,34.7537516 13.9531176,35.073822 13.1142476,35.073822 Z" id="Path" fill="#B0B6BF"></path>
                        <path d="M83.0571517,35.073822 C82.2182816,35.073822 81.3794115,34.7535637 80.7392707,34.113235 L52.3249424,5.69909458 C51.044285,4.41956416 51.044285,2.34267518 52.3249424,1.06295693 C53.6055998,-0.217700492 55.6804226,-0.217700492 56.96108,1.06295693 L85.3754083,29.4772852 C86.6560657,30.7568156 86.6560657,32.8337046 85.3754083,34.1134228 C84.7348918,34.7537516 83.8960217,35.073822 83.0571517,35.073822 Z" id="Path" fill="#B0B6BF"></path>
                        <path d="M4.87243378,40.5379353 L11.1526891,82.5905701 C11.9466667,87.352557 16.0268134,90.809468 20.855106,90.809468 L76.2768802,90.809468 C81.1391709,90.809468 85.3260078,87.1799369 86.0144222,82.3642292 L91.3645198,40.5379353 L4.87243378,40.5379353 L4.87243378,40.5379353 Z" id="Path" fill="#F0F3F7"></path>
                        <path d="M48.0856996,90.8096559 L76.2768802,90.8096559 C81.1391709,90.8096559 85.3260078,87.1801247 86.0144222,82.3644171 L91.3645198,40.5381231 L48.0856996,40.5381231 L48.0856996,90.8096559 Z" id="Path" fill="#E3E9F1"></path>
                        <g id="Group" transform="translate(0.000000, 27.423876)">
                            <path d="M3.27865581,13.1142476 C1.4707462,13.1142476 0,11.6435014 0,9.83577959 L0,3.27865581 C0,1.4707462 1.4707462,0 3.27865581,0 L92.8929312,0 C94.700653,0 96.1715871,1.4707462 96.1715871,3.27865581 L96.1715871,9.83577959 C96.1715871,11.6435014 94.7008409,13.1144354 92.8929312,13.1144354 L3.27865581,13.1144354 L3.27865581,13.1142476 Z" id="Path" fill="#E6EBF2"></path>
                            <path d="M28.4143283,50.2715328 C26.6032255,50.2715328 25.1356725,48.8039797 25.1356725,46.992877 L25.1356725,27.3215056 C25.1356725,25.5104028 26.6032255,24.0428498 28.4143283,24.0428498 C30.2254311,24.0428498 31.6929841,25.5104028 31.6929841,27.3215056 L31.6929841,46.992877 C31.6927962,48.8039797 30.2254311,50.2715328 28.4143283,50.2715328 Z" id="Path" fill="#FFFFFF"></path>
                        </g>
                        <path d="M67.757071,77.6954083 C65.9459682,77.6954083 64.4784151,76.2278553 64.4784151,74.4167525 L64.4784151,54.7453812 C64.4784151,52.9342784 65.9459682,51.4667254 67.757071,51.4667254 C69.5681737,51.4667254 71.0357268,52.9342784 71.0357268,54.7453812 L71.0357268,74.4167525 C71.0357268,76.2278553 69.5681737,77.6954083 67.757071,77.6954083 Z" id="Path" fill="#FFFFFF"></path>
                        <path d="M48.0856996,77.6954083 C46.2745968,77.6954083 44.8070438,76.2278553 44.8070438,74.4167525 L44.8070438,54.7453812 C44.8070438,52.9342784 46.2745968,51.4667254 48.0856996,51.4667254 C49.8968024,51.4667254 51.3643554,52.9342784 51.3643554,54.7453812 L51.3643554,74.4167525 C51.3643554,76.2278553 49.8968024,77.6954083 48.0856996,77.6954083 Z" id="Path" fill="#FFFFFF"></path>
                        <g id="Group" transform="translate(48.085700, 27.423876)">
                            <path d="M3.27865581,46.992877 L3.27865581,27.3215056 C3.27865581,25.5104028 1.8111028,24.0428498 0,24.0428498 L0,50.2713449 C1.8111028,50.2713449 3.27865581,48.8039797 3.27865581,46.992877 Z" id="Path" fill="#FFFFFF"></path>
                            <path d="M44.8070438,0 L0,0 L0,13.1142476 L44.8070438,13.1142476 C46.6147656,13.1142476 48.0856996,11.6435014 48.0856996,9.83559175 L48.0856996,3.27846797 C48.0856996,1.4707462 46.6149534,0 44.8070438,0 Z" id="Path" fill="#C7CED7"></path>
                        </g>
                    </g>
                </g>
            </g>
        </g>
    </g>
</svg>