<?xml version="1.0" encoding="UTF-8"?>
<svg width="110px" height="32px" viewBox="0 0 110 32" version="1.1" xmlns="http://www.w3.org/2000/svg" xmlns:xlink="http://www.w3.org/1999/xlink">
    <!-- Generator: sketchtool 63.1 (101010) - https://sketch.com -->
    <title>D7B3B370-364F-4560-BB33-E034A3849277</title>
    <desc>Created with sketchtool.</desc>
    <defs>
        <linearGradient x1="106.176758%" y1="47.1177686%" x2="-30.0671387%" y2="56.7612005%" id="linearGradient-1">
            <stop stop-color="#4F5BD5" offset="0%"></stop>
            <stop stop-color="#962FBF" offset="25.2897644%"></stop>
            <stop stop-color="#D62976" offset="43.5377058%"></stop>
            <stop stop-color="#D62976" offset="56.0392808%"></stop>
            <stop stop-color="#FA7E1F" offset="77.6953422%"></stop>
            <stop stop-color="#FEDA75" offset="100%"></stop>
        </linearGradient>
    </defs>
    <g id="Page-1" stroke="none" stroke-width="1" fill="none" fill-rule="evenodd">
        <g id="footer-default" transform="translate(-490.000000, -24.000000)">
            <g id="Contacts">
                <g id="Social" transform="translate(346.000000, 24.000000)">
                    <g id="Instagram-btn" transform="translate(144.000000, 0.000000)">
                        <rect id="Rectangle" fill="url(#linearGradient-1)" x="0" y="0" width="110" height="32" rx="16"></rect>
                        <g id="Group" transform="translate(16.000000, 4.000000)">
                            <path d="M46.5332031,14.9941406 L46.5332031,6.85546875 L45.2851562,6.85546875 L45.2851562,14.9941406 L46.5332031,14.9941406 Z M40.9316406,15 C41.8769531,15 42.5585938,14.8417969 42.9765625,14.5253906 C43.5546875,14.0878906 43.84375,13.3710938 43.84375,12.375 C43.84375,11.7890625 43.7480469,11.1855469 43.5566406,10.5644531 L43.5566406,10.5644531 L43.5214844,10.4589844 L43.4160156,10.4882812 L42.4550781,10.7285156 L42.34375,10.7578125 L42.3730469,10.8691406 C42.5136719,11.4277344 42.5839844,11.9355469 42.5839844,12.3925781 C42.5839844,12.9707031 42.4375,13.3457031 42.1445312,13.5175781 C41.9335938,13.6308594 41.5292969,13.6875 40.9316406,13.6875 L40.9316406,13.6875 L40.4042969,13.6875 L40.4042969,13.6875 L40.4042969,15 L40.9316406,15 Z M43.1629953,17.8028755 L43.2068799,17.758991 L44.0594933,16.9063776 L44.1033778,16.862493 L43.1567261,15.9158413 L43.1128416,15.9597259 L42.2602282,16.8123393 L42.2163436,16.8562238 L42.2602282,16.9001083 L43.1191108,17.758991 L43.1629953,17.8028755 Z M41.2571535,17.8028755 L42.197536,16.862493 L41.2508843,15.9158413 L41.2069998,15.9597259 L40.3543863,16.8123393 L40.3105018,16.8562238 L40.3543863,16.9001083 L41.213269,17.758991 L41.2571535,17.8028755 Z M38.4991488,10.2032661 L38.5430334,10.1593816 L39.3956468,9.30676818 L39.4395313,9.26288366 L39.3956468,9.21899915 L38.5367641,8.36011648 L38.4928796,8.31623197 L37.5524971,9.25661445 L38.4991488,10.2032661 Z M37.1816406,15 C37.9238281,15 38.4980469,14.7539062 38.9042969,14.2617188 C39.2324219,14.7539062 39.7695312,15 40.515625,15 L40.515625,15 L40.6503906,15 L40.6503906,13.6875 L40.5273438,13.6875 C40.3632812,13.6875 40.2216797,13.6689453 40.1025391,13.6318359 C39.9833984,13.5947266 39.8828125,13.5371094 39.8007812,13.4589844 C39.71875,13.3808594 39.6542969,13.2832031 39.6074219,13.1660156 C39.5644531,13.0644531 39.5351562,12.9238281 39.5195312,12.7441406 L39.5195312,12.7441406 L39.4257812,11.390625 L39.4199219,11.2675781 L39.296875,11.2792969 L38.3300781,11.3964844 L38.21875,11.4082031 L38.2304688,11.5195312 L38.2597656,12 C38.2714844,12.171875 38.2773438,12.3535156 38.2773438,12.5449219 C38.2773438,12.7246094 38.265625,12.8789062 38.2421875,13.0078125 C38.1992188,13.234375 38.0898438,13.4042969 37.9140625,13.5175781 C37.7382812,13.6308594 37.484375,13.6875 37.1523438,13.6875 L37.1523438,13.6875 L36.5019531,13.6875 L36.5019531,13.6875 L36.5019531,15 L37.1816406,15 Z M27.1914062,15 C28.0820312,15 28.7089844,14.7617188 29.0722656,14.2851562 C29.3613281,14.7578125 29.8808594,14.9960938 30.6308594,15 C31.2871094,15 31.8183594,14.7558594 32.2246094,14.2675781 C32.5253906,14.7558594 33.0058594,15 33.6660156,15 C34.3066406,15 34.7832031,14.7675781 35.0957031,14.3027344 C35.3535156,14.7675781 35.8457031,15 36.5722656,15 L36.5722656,15 L36.7363281,15 L36.7363281,13.6875 L36.5605469,13.6875 C36.2714844,13.6875 36.046875,13.5917969 35.8867188,13.4003906 C35.7265625,13.2089844 35.6289062,12.9082031 35.59375,12.4980469 L35.59375,12.4980469 L35.5,11.390625 L35.4882812,11.2675781 L35.3652344,11.2851562 L34.4042969,11.3964844 L34.2871094,11.4082031 L34.2988281,11.5253906 L34.328125,11.8828125 C34.3476562,12.078125 34.3574219,12.328125 34.3574219,12.6328125 C34.3613281,13 34.3046875,13.2675781 34.1875,13.4355469 C34.0703125,13.5996094 33.8945312,13.6816406 33.6601562,13.6816406 C33.53125,13.6816406 33.4179688,13.6660156 33.3203125,13.6347656 C33.2226562,13.6035156 33.140625,13.5546875 33.0742188,13.4882812 C33.0078125,13.421875 32.9550781,13.3378906 32.9160156,13.2363281 C32.8769531,13.1191406 32.8535156,12.9960938 32.8457031,12.8671875 L32.8457031,12.8671875 L32.7519531,11.5136719 L32.7460938,11.390625 L32.6230469,11.4023438 L31.65625,11.5195312 L31.5449219,11.53125 L31.5507812,11.6425781 L31.5859375,12 C31.59375,12.0898438 31.5996094,12.1796875 31.6035156,12.2695312 C31.6074219,12.359375 31.609375,12.4472656 31.609375,12.5332031 C31.609375,12.7050781 31.6015625,12.8339844 31.5859375,12.9199219 C31.53125,13.1816406 31.4277344,13.375 31.2753906,13.5 C31.1230469,13.625 30.9121094,13.6875 30.6425781,13.6875 C30.4472656,13.6875 30.2851562,13.6582031 30.15625,13.5996094 C30.0273438,13.5410156 29.9296875,13.4511719 29.8632812,13.3300781 C29.7929688,13.2089844 29.7519531,13.0546875 29.7402344,12.8671875 L29.7402344,12.8671875 L29.6464844,11.5136719 L29.6347656,11.390625 L29.5175781,11.4023438 L28.5507812,11.5195312 L28.4394531,11.53125 L28.4453125,11.6425781 L28.4804688,12 C28.4882812,12.0976562 28.4941406,12.1894531 28.4980469,12.2753906 C28.5019531,12.3652344 28.5039062,12.4511719 28.5039062,12.5332031 C28.5039062,12.7050781 28.4941406,12.8339844 28.4746094,12.9199219 C28.4238281,13.1777344 28.2949219,13.3691406 28.0878906,13.4941406 C27.8808594,13.6230469 27.5859375,13.6875 27.203125,13.6875 L27.203125,13.6875 L26.78125,13.6875 L26.78125,13.6875 L26.78125,15 L27.1914062,15 Z M25.4149485,10.1915474 L25.458833,10.1476629 L26.3114464,9.29504943 L26.3553309,9.25116491 L25.4086792,8.30451322 L25.3647947,8.34839773 L24.5121813,9.20101118 L24.4682968,9.2448957 L25.3710639,10.1476629 L25.4149485,10.1915474 Z M23.5091066,10.1915474 L23.5529912,10.1476629 L24.4056046,9.29504943 L24.4494891,9.25116491 L23.5028374,8.30451322 L23.4589529,8.34839773 L22.6063395,9.20101118 L22.5624549,9.2448957 L23.5091066,10.1915474 Z M23.265625,15 C24.1875,15 24.859375,14.7539062 25.28125,14.2617188 C25.609375,14.7539062 26.1464844,15 26.8925781,15 L26.8925781,15 L27.0273438,15 L27.0273438,13.6875 L26.9042969,13.6875 C26.6855469,13.6875 26.5058594,13.6542969 26.3652344,13.5878906 C26.2246094,13.5214844 26.1152344,13.4179688 26.0371094,13.2773438 C25.9589844,13.140625 25.9121094,12.9628906 25.8964844,12.7441406 L25.8964844,12.7441406 L25.8027344,11.390625 L25.796875,11.2675781 L25.6738281,11.2792969 L24.7070312,11.3964844 L24.5957031,11.4082031 L24.6074219,11.5195312 L24.6367188,12 C24.6484375,12.171875 24.6542969,12.3535156 24.6542969,12.5449219 C24.6542969,12.7246094 24.6425781,12.8789062 24.6191406,13.0078125 C24.5332031,13.4609375 24.0722656,13.6875 23.2363281,13.6875 L23.2363281,13.6875 L22.5859375,13.6875 L22.5859375,13.6875 L22.5859375,15 L23.265625,15 Z M22.8203125,15 L22.8203125,13.6875 L22.6386719,13.6875 C21.9472656,13.6875 21.6015625,13.234375 21.6015625,12.328125 L21.6015625,12.328125 L21.6015625,6.85546875 L20.3476562,6.85546875 L20.3476562,12.3398438 C20.3476562,14.1132812 21.1054688,15 22.6210938,15 L22.6210938,15 L22.8203125,15 Z M14.5573642,7.50026035 L14.6451333,7.46891427 L19.2279305,5.70726442 L19.2655458,5.69472599 L19.2655458,4.80449724 L19.1777768,4.84211254 L14.6012487,6.59749317 L14.5573642,6.61630082 L14.5573642,7.50026035 Z M14.8222656,15 C15.9824219,15 16.8671875,14.8203125 17.4765625,14.4609375 C18.0859375,14.1015625 18.3964844,13.5585938 18.4082031,12.8320312 C18.4199219,12.140625 18.1601562,11.5097656 17.6289062,10.9394531 C17.4804688,10.7753906 17.3027344,10.5957031 17.0957031,10.4003906 C16.8925781,10.2011719 16.6611328,9.98730469 16.4013672,9.75878906 C16.1416016,9.53027344 15.8535156,9.28125 15.5371094,9.01171875 L15.5371094,9.01171875 L19.2871094,7.61132812 L19.3632812,7.58203125 L19.3632812,6.27539062 L19.2050781,6.33398438 L15.1445312,7.875 C14.546875,8.10546875 14.2480469,8.5 14.2480469,9.05859375 C14.2480469,9.26953125 14.3085938,9.47460938 14.4296875,9.67382812 C14.5507812,9.87304688 14.7285156,10.0644531 14.9628906,10.2480469 C15.4277344,10.6113281 15.9589844,11.0703125 16.5566406,11.625 C16.9355469,11.984375 17.125,12.3378906 17.125,12.6855469 C17.1210938,13.3535156 16.3515625,13.6875 14.8164062,13.6875 L14.8164062,13.6875 L13.9023438,13.6875 L13.9023438,15 L14.8222656,15 Z M9.13867188,17.9941406 L9.23828125,17.9765625 C11.4296875,17.5625 12.6777344,16.5039062 12.9824219,14.8007812 C13.1933594,14.9335938 13.5253906,15 13.9785156,15 L13.9785156,15 L14.1484375,15 L14.1484375,13.6875 L13.9140625,13.6875 C13.7539062,13.6875 13.6113281,13.6582031 13.4863281,13.5996094 C13.3613281,13.5410156 13.2519531,13.4511719 13.1582031,13.3300781 C13.0644531,13.2089844 12.9863281,13.0546875 12.9238281,12.8671875 L12.9238281,12.8671875 L12.5605469,11.7304688 L12.5253906,11.6191406 L12.4082031,11.6601562 L11.4355469,12.0058594 L11.3183594,12.046875 L11.3710938,12.1640625 C11.671875,12.8671875 11.8203125,13.4765625 11.8164062,13.9921875 C11.8164062,14.4960938 11.7070312,14.9355469 11.4882812,15.3105469 C11.2695312,15.6855469 10.9394531,16 10.4980469,16.2539062 C10.0566406,16.5039062 9.5,16.6914062 8.828125,16.8164062 L8.828125,16.8164062 L8.6875,16.8457031 L8.74023438,16.9746094 L9.10351562,17.9003906 L9.13867188,17.9941406 Z M8.98046875,14.9941406 L8.98046875,6.85546875 L7.73242188,6.85546875 L7.73242188,14.9941406 L8.98046875,14.9941406 Z M1.515625,18.9550781 L1.50390625,18.8261719 C1.44921875,18.1894531 1.421875,17.4863281 1.421875,16.7167969 C1.421875,16.2792969 1.44042969,15.8974609 1.47753906,15.5712891 C1.51464844,15.2451172 1.56933594,14.9824219 1.64160156,14.7832031 C1.71386719,14.5839844 1.796875,14.4365234 1.890625,14.3408203 C1.984375,14.2451172 2.08984375,14.1953125 2.20703125,14.1914062 C2.25390625,14.1914062 2.31054688,14.2011719 2.37695312,14.2207031 C2.44335938,14.2402344 2.515625,14.2695312 2.59375,14.3085938 C2.63671875,14.328125 2.67871094,14.3496094 2.71972656,14.3730469 L2.78125,14.4074707 L2.78125,14.4074707 L2.84277344,14.4404297 C2.88378906,14.4619141 2.92382812,14.4833984 2.96289062,14.5048828 C3.00195312,14.5263672 3.04003906,14.5488281 3.07714844,14.5722656 C3.11425781,14.5957031 3.15234375,14.6191406 3.19140625,14.6425781 C3.76171875,14.9707031 4.25976562,15.1347656 4.68554688,15.1347656 C4.99804688,15.1347656 5.27148438,15.0830078 5.50585938,14.9794922 C5.74023438,14.8759766 5.93359375,14.7226562 6.0859375,14.5195312 C6.2265625,14.328125 6.33203125,14.1113281 6.40234375,13.8691406 C6.47265625,13.6269531 6.5078125,13.3613281 6.5078125,13.0722656 C6.5078125,12.4082031 6.31054688,11.8359375 5.91601562,11.3554688 C5.51757812,10.8710938 4.984375,10.6308594 4.31640625,10.6347187 C3.3046875,10.6386719 2.50195312,11.3691406 1.90820313,12.8261719 C1.36523438,12.9316406 0.9375,13.2890625 0.625,13.8984375 C0.30859375,14.5234375 0.150390625,15.5175781 0.150390625,16.8808594 C0.150390625,17.5058594 0.171875,18.1601562 0.21484375,18.84375 L0.21484375,18.84375 L0.220703125,18.9550781 L1.515625,18.9550781 Z M4.68554688,13.8339844 C4.33398438,13.8339844 3.83203125,13.5859375 3.1796875,13.0898438 C3.25390625,12.8984375 3.33398438,12.7314453 3.41992188,12.5888672 C3.50585938,12.4462891 3.59667969,12.3300781 3.69238281,12.2402344 C3.78808594,12.1503906 3.88867188,12.0839844 3.99414062,12.0410156 C4.09960938,11.9980469 4.2109375,11.9765625 4.328125,11.9765625 C4.375,11.9765625 4.41894531,11.9794922 4.45996094,11.9853516 C4.50097656,11.9912109 4.54101562,11.9990234 4.58007812,12.0087891 C4.61914062,12.0185547 4.65625,12.0302734 4.69140625,12.0439453 C4.7265625,12.0576172 4.75976562,12.0732422 4.79101562,12.0908203 C4.82226562,12.1083984 4.85253906,12.1289062 4.88183594,12.1523438 C4.91113281,12.1757812 4.93847656,12.2011719 4.96386719,12.2285156 C4.98925781,12.2558594 5.01269531,12.2861328 5.03417969,12.3193359 C5.05566406,12.3525391 5.07714844,12.3876953 5.09863281,12.4248047 C5.12011719,12.4619141 5.13867188,12.5019531 5.15429688,12.5449219 C5.23242188,12.7441406 5.27148438,12.9433594 5.27148438,13.1425781 C5.27539062,13.3847656 5.22949219,13.5605469 5.13378906,13.6699219 C5.03808594,13.7792969 4.88867188,13.8339844 4.68554688,13.8339844 Z" id="اینستاگرام" fill="#FFFFFF" fill-rule="nonzero"></path>
                            <g id="Instagram" transform="translate(56.000000, 0.000000)">
                                <rect id="Rectangle" x="-8.12048841e-15" y="0" width="23.4578048" height="24"></rect>
                                <path d="M17.0602217,2 C19.5138936,2 21.5029878,4.03506932 21.5029878,6.54545455 L21.5029878,17.4545455 C21.5029878,19.9649307 19.5138936,22 17.0602217,22 L6.39758314,22 C3.94391119,22 1.95481707,19.9649307 1.95481707,17.4545455 L1.95481707,6.54545455 C1.95481707,4.03506932 3.94391119,2 6.39758314,2 L17.0602217,2 Z M17.0602217,3.36363636 L6.39758314,3.36363636 C4.68001277,3.36363636 3.28764689,4.78818489 3.28764689,6.54545455 L3.28764689,17.4545455 C3.28764689,19.2118151 4.68001277,20.6363636 6.39758314,20.6363636 L17.0602217,20.6363636 C18.7777921,20.6363636 20.1701579,19.2118151 20.1701579,17.4545455 L20.1701579,6.54545455 C20.1701579,4.78818489 18.7777921,3.36363636 17.0602217,3.36363636 Z M11.7289024,6.54545455 C14.6733087,6.54545455 17.0602217,8.98753773 17.0602217,12 C17.0602217,15.0124623 14.6733087,17.4545455 11.7289024,17.4545455 C8.78449608,17.4545455 6.39758314,15.0124623 6.39758314,12 C6.39758314,8.98753773 8.78449608,6.54545455 11.7289024,6.54545455 Z M11.7289024,7.90909091 C9.52059766,7.90909091 7.73041296,9.7406533 7.73041296,12 C7.73041296,14.2593467 9.52059766,16.0909091 11.7289024,16.0909091 C13.9372072,16.0909091 15.7273919,14.2593467 15.7273919,12 C15.7273919,9.7406533 13.9372072,7.90909091 11.7289024,7.90909091 Z M17.5044983,4.72727273 C18.2405999,4.72727273 18.8373281,5.33779352 18.8373281,6.09090909 C18.8373281,6.84402466 18.2405999,7.45454545 17.5044983,7.45454545 C16.7683967,7.45454545 16.1716685,6.84402466 16.1716685,6.09090909 C16.1716685,5.33779352 16.7683967,4.72727273 17.5044983,4.72727273 Z" id="Combined-Shape" fill="#FFFFFF"></path>
                            </g>
                        </g>
                    </g>
                </g>
            </g>
        </g>
    </g>
</svg>