<?xml version="1.0" encoding="UTF-8"?>
<svg width="32px" height="32px" viewBox="0 0 32 32" version="1.1" xmlns="http://www.w3.org/2000/svg" xmlns:xlink="http://www.w3.org/1999/xlink">
    <!-- Generator: sketchtool 60.1 (101010) - https://sketch.com -->
    <title>D19DE298-638C-4DA7-A16D-9965CACFBC3E</title>
    <desc>Created with sketchtool.</desc>
    <g id="Lendo-asset" stroke="none" stroke-width="1" fill="none" fill-rule="evenodd">
        <g id="Lendo-assets" transform="translate(-33.000000, -225.000000)" fill="#3A99CA" fill-rule="nonzero">
            <g id="Telegram" transform="translate(33.000000, 225.000000)">
                <path d="M15.9800246,2.48689958e-14 C24.8049938,2.48689958e-14 31.9600493,7.15308419 31.9600493,15.9800246 C31.9600493,24.8049938 24.8049938,31.9600493 15.9800246,31.9600493 C7.15505544,31.9600493 -8.8817842e-14,24.8049938 -8.8817842e-14,15.9800246 C-8.8817842e-14,7.15505544 7.15505544,2.48689958e-14 15.9800246,2.48689958e-14 Z M25.3333333,6.66666667 L4,15.5132407 L9.133138,17.4824768 L11.7864583,24.0858102 L15.2407227,20.6468982 L21.1632487,25.3333333 L25.3333333,6.66666667 Z M19.2373047,12.0223148 L12.7075195,17.9517361 L11.8942057,21.0033797 L10.3917643,17.2632407 L19.2373047,12.0223148 Z" id="Shape"></path>
            </g>
        </g>
    </g>
</svg>