<svg xmlns="http://www.w3.org/2000/svg" width="104.104" height="104.123" viewBox="0 0 104.104 104.123">
    <defs>
        <style>
            .cls-1{fill:#dcf7eb}.cls-2,.cls-3{fill:#1ac977}.cls-3{stroke:#dcf7eb;stroke-width:.3px}.cls-4{fill:#9fe8c6}.cls-5{fill:#fff}
        </style>
    </defs>
    <g id="Group_36098" data-name="Group 36098" transform="translate(-137 -263)">
        <g id="Group_6975" data-name="Group 6975" transform="translate(137 263)">
            <path id="Path_6774" d="M187.573 89.283a53.541 53.541 0 0 1 22.211 3.817 52.979 52.979 0 0 1 16.71 10.995 52.075 52.075 0 0 1-13.4 83.94 57.029 57.029 0 0 1-10.081 3.726 53.441 53.441 0 0 1-13.661 1.581 54.506 54.506 0 0 1-12.179-1.593 52.075 52.075 0 0 1-32.751-75.355 51.686 51.686 0 0 1 11.609-14.383 53.666 53.666 0 0 1 13.964-8.723 51.868 51.868 0 0 1 13.469-3.574 79.94 79.94 0 0 1 4.111-.426" class="cls-1" data-name="Path 6774" transform="translate(-138.065 -89.232)"/>
        </g>
        <g id="Group_14891" data-name="Group 14891" transform="translate(161.145 284.732)">
            <g id="Screen_Shot_2019-10-05_at_8" data-name="Screen Shot 2019-10-05 at 8">
                <g id="_3674b2ff" data-name="#3674b2ff" transform="translate(7.657)">
                    <path id="Path_14567" d="M470.2 79.06a5.594 5.594 0 0 1 1.013.134 24.664 24.664 0 0 1 2.633.673 2.855 2.855 0 0 1-.335 1.617 7.816 7.816 0 0 1-2.888 2.324c-.474.264-.907.69-1.489.646a19.673 19.673 0 0 1 .364-2.066c.244-1.106.439-2.224.702-3.328z" class="cls-2" data-name="Path 14567" transform="translate(-435.905 -79.06)"/>
                    <path id="Path_14568" d="M163.143 122.052a2.457 2.457 0 0 1 1.635-.463q5.15.007 10.3 0a2.073 2.073 0 0 1 2.079 1.593c.038.388.163.917-.243 1.157a19.74 19.74 0 0 1-2.073 1.179 26.784 26.784 0 0 1-.011-1.552h-10.107c0 2.882.005 5.764 0 8.645-.754 0-1.509-.012-2.263 0-.016-2.939 0-5.879-.009-8.819a2.177 2.177 0 0 1 .692-1.74z" class="cls-2" data-name="Path 14568" transform="translate(-162.448 -116.982)"/>
                    <path id="Path_14569" d="M250.09 123.307a3.236 3.236 0 0 1 1.827-.595 2.106 2.106 0 0 1 1.5 1.136c1.682 2.867 3.352 5.742 5.034 8.609a4.943 4.943 0 0 1 .588 1.177c-.714.026-1.429.024-2.143.013-.32.036-.493-.278-.654-.5-1.6-2.679-3.115-5.408-4.746-8.068-1.685.925-3.349 1.889-5.018 2.842-2.288 1.264-4.545 2.584-6.826 3.858.377.639.814 1.238 1.222 1.857-.8.016-1.6.025-2.392.007-.2.015-.322-.15-.447-.273a2.255 2.255 0 0 1-.694-1.74 2.1 2.1 0 0 1 1.071-1.692z" class="cls-2" data-name="Path 14569" transform="translate(-229.217 -117.979)"/>
                    <path id="Path_14570" d="M463.731 132.08c.768-.413 1.52-.86 2.316-1.22a3.6 3.6 0 0 1-.168 1.52 3.254 3.254 0 0 1-1.21 1.285 25.345 25.345 0 0 1-3.169 1.8 4.422 4.422 0 0 1 .414-1.95 5.093 5.093 0 0 1 1.817-1.435z" class="cls-2" data-name="Path 14570" transform="translate(-429.101 -125.248)"/>
                    <path id="Path_14571" d="M454.352 177.781a9.206 9.206 0 0 1 3.583-2 3.215 3.215 0 0 1-.941 2.585c-1.107 1.027-2.638 1.446-3.724 2.511a4.429 4.429 0 0 1 1.082-3.096z" class="cls-2" data-name="Path 14571" transform="translate(-421.763 -165.302)"/>
                </g>
                <g id="_303e4eff" data-name="#303e4eff" transform="translate(0 18.476)">
                    <path id="Path_14573" d="M96.746 249.607q19.787-.013 39.575 0a5.713 5.713 0 0 1 2.9.62 3.057 3.057 0 0 1 1.333 1.716 10.7 10.7 0 0 1 .3 1.937c.742 8.052 1.45 16.11 2.2 24.159.187 2.093.348 4.187.568 6.276a12.682 12.682 0 0 1 0 1.957 3.611 3.611 0 0 1-2.048 2.543 15.673 15.673 0 0 1-1.523.5c-2.638.75-5.26 1.557-7.9 2.3a2.831 2.831 0 0 1-1.261.05c-1.188-.092-2.385-.01-3.572-.125-.829-.034-1.66-.026-2.49-.061-1.465-.1-2.937-.051-4.4-.155-1.856-.024-3.708-.132-5.564-.155-1.439-.147-2.892-.011-4.329-.177-1.048-.044-2.1.025-3.145-.1-1.011-.039-2.025-.028-3.036-.058-1.043-.12-2.1-.065-3.144-.111-1.26-.113-2.529-.048-3.79-.144-.9-.035-1.809-.042-2.713-.064a3 3 0 0 1-2.3-1.2 3.521 3.521 0 0 1-.641-1.972c.281-2.134.533-4.273.844-6.4 1.362-10.448 2.772-20.89 4.132-31.338m2.182 2.373c-.057.67-.17 1.333-.248 2-.42 2.924-.755 5.861-1.173 8.786-.467 3.714-.993 7.419-1.455 11.135-.363 2.381-.608 4.78-.958 7.164-.3 2.127-.525 4.267-.855 6.39a.7.7 0 0 0 .634.566c.887.064 1.78.009 2.666.1 1.01.054 2.024 0 3.03.116 1.082.05 2.172-.015 3.25.111 1.154.067 2.315-.024 3.464.118 1.011.048 2.025-.008 3.032.106 1.916.022 3.83.144 5.747.161 1.225.1 2.458.048 3.683.142 1.047.051 2.1.021 3.143.109 1.134.057 2.276 0 3.407.124.633.024 1.266.017 1.9.031.607-.005 1.206.109 1.814.1q.018-18.631.008-37.264-15.545.008-31.09 0m33.191 0q.016 18.565.008 37.131c2.329-.644 4.642-1.34 6.966-2a11.729 11.729 0 0 0 1.4-.431 1.2 1.2 0 0 0 .752-1.157c-.287-2.836-.54-5.676-.779-8.516-.483-4.992-.891-9.994-1.376-14.985-.242-2.75-.467-5.5-.748-8.245a2.378 2.378 0 0 0-.29-1.414 2.43 2.43 0 0 0-1.3-.374c-1.534-.01-3.081.002-4.628-.007z" class="cls-2" data-name="Path 14573" transform="translate(-91.77 -249.603)"/>
                </g>
            </g>
            <g id="Group_14890" data-name="Group 14890" transform="translate(11.772 13.039)">
                <path id="Path_6777" d="M360.946 311.717a1.5 1.5 0 0 1 2.364-.891c.635.45.622 1.29.685 1.986a8 8 0 0 0 7.074 7.188 7.879 7.879 0 0 0 6.075-1.845 8.1 8.1 0 0 0 2.875-5.733 11.15 11.15 0 0 0 2.571 2.823 11.1 11.1 0 0 1-13.2 7.564 11 11 0 0 1-8.444-11.092z" class="cls-3" data-name="Path 6777" transform="translate(-360.92 -292.718)"/>
                <path id="Path_6778" d="M457.977 216.625a12.831 12.831 0 0 1 15.979.426 13.455 13.455 0 0 1 3.945 6.387 15.558 15.558 0 0 1 .308 5.191 13.677 13.677 0 0 1-1.967 5.119 12.651 12.651 0 0 1-5.918 4.743c-.552.214-1.1.45-1.666.611a10.8 10.8 0 0 1-2.628.336 13.372 13.372 0 0 1-8.359-2.873 11.15 11.15 0 0 1-2.571-2.823 12.677 12.677 0 0 1-1.849-9.531 11.005 11.005 0 0 1 .845-2.6l.273-.279a3.026 3.026 0 0 1 .616-1.441 14.6 14.6 0 0 1 2.991-3.266m11.679 5.765c-1.8 1.81-3.615 3.608-5.42 5.414-.607-.6-1.207-1.2-1.81-1.8a1.591 1.591 0 0 0-.941-.552 1.2 1.2 0 0 0-1.316 1.323 1.674 1.674 0 0 0 .637 1.041c.775.758 1.537 1.528 2.3 2.292a1.808 1.808 0 0 0 .96.6 1.4 1.4 0 0 0 1.207-.522q3.1-3.1 6.2-6.186a1.489 1.489 0 0 0 .555-.937 1.205 1.205 0 0 0-1.31-1.354 1.882 1.882 0 0 0-1.061.68z" class="cls-4" data-name="Path 6778" transform="translate(-434.34 -212.009)"/>
                <path id="Path_6779" d="M457.977 216.625a12.831 12.831 0 0 1 15.979.426 13.455 13.455 0 0 1 3.945 6.387 15.558 15.558 0 0 1 .308 5.191 13.677 13.677 0 0 1-1.967 5.119 12.651 12.651 0 0 1-5.918 4.743c-.552.214-1.1.45-1.666.611a10.8 10.8 0 0 1-2.628.336 13.372 13.372 0 0 1-8.359-2.873 11.15 11.15 0 0 1-2.571-2.823 12.677 12.677 0 0 1-1.849-9.531 11.005 11.005 0 0 1 .845-2.6l.273-.279a3.026 3.026 0 0 1 .616-1.441 14.6 14.6 0 0 1 2.991-3.266m11.679 5.765c-1.8 1.81-3.615 3.608-5.42 5.414-.607-.6-1.207-1.2-1.81-1.8a1.591 1.591 0 0 0-.941-.552 1.2 1.2 0 0 0-1.316 1.323 1.674 1.674 0 0 0 .637 1.041c.775.758 1.537 1.528 2.3 2.292a1.808 1.808 0 0 0 .96.6 1.4 1.4 0 0 0 1.207-.522q3.1-3.1 6.2-6.186a1.489 1.489 0 0 0 .555-.937 1.205 1.205 0 0 0-1.31-1.354 1.882 1.882 0 0 0-1.061.68z" class="cls-5" data-name="Path 6779" transform="translate(-436.001 -214.039)"/>
                <path id="Path_6780" d="M501.314 256.25a1.882 1.882 0 0 1 1.067-.679 1.205 1.205 0 0 1 1.31 1.354 1.49 1.49 0 0 1-.555.937q-3.106 3.089-6.2 6.186a1.4 1.4 0 0 1-1.207.522 1.809 1.809 0 0 1-.96-.6c-.768-.764-1.53-1.534-2.3-2.292a1.675 1.675 0 0 1-.637-1.041 1.2 1.2 0 0 1 1.316-1.323 1.591 1.591 0 0 1 .941.552c.6.6 1.2 1.205 1.81 1.8 1.801-1.809 3.614-3.606 5.415-5.416z" class="cls-2" data-name="Path 6780" transform="translate(-467.658 -247.899)"/>
            </g>
        </g>
    </g>
</svg>
